<?xml version="1.0" encoding="UTF-8" standalone="no"?>
<svg
   xmlns="http://www.w3.org/2000/svg"
   viewBox="0 0 311 318"
   version="1.1"
   id="svg397"
   width="311"
   height="318"
   style="clip-rule:evenodd;fill-rule:evenodd">
  <metadata
     id="metadata44">
  </metadata>
  <defs
     id="defs401" />
  <g
     transform="matrix(9.52381,0,0,9.52381,7.8246922,-1.4061588)"
     id="g395">
    <path
       d="m 18.7,21.2 c -0.1,-0.1 -0.1,-0.3 -0.2,-0.5 0,-0.2 -0.1,-0.4 -0.1,-0.6 -0.2,0.2 -0.4,0.3 -0.6,0.5 -0.2,0.2 -0.5,0.3 -0.7,0.4 -0.3,0.1 -0.5,0.2 -0.9,0.3 -0.3,0.1 -0.7,0.1 -1,0.1 -0.6,0 -1.1,-0.1 -1.6,-0.3 -0.5,-0.2 -0.9,-0.4 -1.3,-0.7 -0.4,-0.3 -0.6,-0.7 -0.8,-1.1 -0.2,-0.4 -0.3,-0.9 -0.3,-1.4 0,-1.2 0.5,-2.2 1.4,-2.8 0.9,-0.7 2.3,-1 4.1,-1 h 1.7 v -0.7 c 0,-0.6 -0.2,-1 -0.5,-1.3 -0.4,-0.3 -0.9,-0.5 -1.6,-0.5 -0.6,0 -1,0.1 -1.3,0.4 -0.3,0.3 -0.4,0.6 -0.4,1 h -3 c 0,-0.5 0.1,-1 0.3,-1.4 0.2,-0.4 0.5,-0.8 1,-1.2 0.4,-0.3 0.9,-0.6 1.5,-0.8 0.6,-0.2 1.3,-0.3 2.1,-0.3 0.7,0 1.3,0.1 1.9,0.3 0.6,0.2 1.1,0.4 1.6,0.8 0.4,0.3 0.8,0.8 1,1.3 0.2,0.5 0.4,1.1 0.4,1.8 v 5 c 0,0.6 0,1.1 0.1,1.5 0.1,0.4 0.2,0.8 0.3,1 v 0.2 z m -2.9,-2.1 c 0.3,0 0.6,0 0.8,-0.1 0.3,-0.1 0.5,-0.2 0.7,-0.3 0.2,-0.1 0.4,-0.2 0.5,-0.4 0.1,-0.1 0.3,-0.3 0.4,-0.4 v -2 h -1.5 c -0.5,0 -0.9,0 -1.2,0.1 -0.3,0.1 -0.6,0.2 -0.8,0.4 -0.2,0.2 -0.4,0.3 -0.5,0.6 -0.1,0.2 -0.1,0.5 -0.1,0.7 0,0.4 0.1,0.7 0.4,1 0.3,0.3 0.8,0.4 1.3,0.4 z"
       id="path393" />
  </g>
  <g
     id="g553"
     transform="matrix(5.1132713,0,0,5.1132713,-2371.0485,-359.63238)">
    <path
       d="m 523.76623,99.626976 c 0,-0.92 -0.74533,-1.666667 -1.66667,-1.666667 -0.92,0 -1.66666,0.746667 -1.66666,1.666667 0,12.822664 -9.492,23.440004 -21.81067,25.273334 l 1.49867,-1.83067 c 0.58267,-0.71333 0.47867,-1.764 -0.23333,-2.34533 -0.712,-0.58533 -1.76134,-0.47867 -2.34534,0.23333 l -3.98133,4.86267 c -0.048,0.0587 -0.0667,0.13333 -0.10533,0.19733 -0.06,0.0973 -0.12,0.19067 -0.15867,0.29867 -0.04,0.10667 -0.0493,0.21467 -0.0667,0.32667 -0.012,0.08 -0.0467,0.14933 -0.0467,0.23333 0,0.028 0.0133,0.052 0.0147,0.0813 0.001,0.028 -0.009,0.056 -0.007,0.084 0.008,0.0867 0.0533,0.16267 0.0747,0.24667 0.028,0.104 0.0467,0.208 0.0933,0.304 0.044,0.092 0.10933,0.16933 0.16933,0.25333 0.0667,0.0893 0.128,0.18 0.212,0.256 0.02,0.02 0.0307,0.0467 0.0533,0.0653 l 4.864,3.98133 c 0.31067,0.25333 0.684,0.376 1.05467,0.376 0.48267,0 0.96133,-0.208 1.29067,-0.61067 0.58266,-0.712 0.47866,-1.76266 -0.23334,-2.344 l -1.64133,-1.34533 c 13.92267,-2.07333 24.63733,-14.10533 24.63733,-28.597334"
       id="path181" />
    <path
       d="m 520.0649,86.353643 c 0.007,-0.02933 0.0227,-0.052 0.028,-0.08133 l 1.016,-6.202666 c 0.148,-0.909333 -0.468,-1.765333 -1.37467,-1.914667 -0.908,-0.150666 -1.76533,0.466667 -1.91467,1.376 l -0.34933,2.137334 c -8.756,-11.037334 -24.524,-14.334667 -37.07866,-7.082667 -0.79734,0.46 -1.07067,1.48 -0.61067,2.276 0.46267,0.797333 1.47733,1.070667 2.27733,0.610667 11.10667,-6.410667 25.04667,-3.5 32.79334,6.251999 l -2.336,-0.381333 c -0.904,-0.149333 -1.764,0.465333 -1.91467,1.374667 -0.148,0.908 0.468,1.765333 1.37467,1.913333 l 6.20399,1.016 c 0.0893,0.01467 0.18,0.02133 0.268,0.02133 0,0 0.001,0.0013 0.003,0.0013 v 0 h 10e-4 c 0,0 0.003,-0.0013 0.004,-0.0013 0.17067,0 0.34134,-0.036 0.50934,-0.09067 0.052,-0.01733 0.0987,-0.04 0.148,-0.06267 0.056,-0.024 0.11466,-0.03733 0.16933,-0.06933 0.0387,-0.02133 0.06,-0.06 0.096,-0.08533 0.10533,-0.07067 0.19733,-0.153333 0.28267,-0.248 0.0573,-0.064 0.11333,-0.122666 0.16,-0.192 0.0653,-0.096 0.108,-0.202666 0.152,-0.313333 0.0347,-0.084 0.072,-0.164 0.092,-0.253333"
       id="path183" />
    <path
       d="m 482.05823,121.78431 c -11.10266,-6.41333 -15.55333,-19.94 -10.98,-31.525334 l 0.836,2.213333 c 0.25067,0.666667 0.88534,1.077334 1.55867,1.077334 0.196,0 0.39333,-0.03467 0.588,-0.108 0.86133,-0.325334 1.296,-1.286667 0.96933,-2.148 l -2.22133,-5.88 c -0.0267,-0.07067 -0.0827,-0.124 -0.11733,-0.190667 -0.0547,-0.09867 -0.10534,-0.197333 -0.17867,-0.285333 -0.0733,-0.08667 -0.16133,-0.150667 -0.252,-0.221334 -0.0627,-0.04933 -0.10533,-0.116 -0.176,-0.156 -0.0253,-0.01467 -0.0547,-0.01467 -0.0787,-0.02667 -0.0267,-0.01333 -0.0427,-0.03733 -0.0693,-0.04933 -0.0787,-0.036 -0.16667,-0.03467 -0.248,-0.05733 -0.10533,-0.02933 -0.20667,-0.064 -0.31333,-0.072 -0.1,-0.008 -0.19734,0.0093 -0.29734,0.02 -0.11466,0.01333 -0.22533,0.02 -0.33466,0.05467 -0.0267,0.0093 -0.0547,0.004 -0.0813,0.01467 l -5.87866,2.221334 c -0.86267,0.325333 -1.296,1.286666 -0.97067,2.148 0.32533,0.862666 1.288,1.290666 2.148,0.970666 l 2.024,-0.765333 c -5.17867,13.098664 -0.15067,28.401334 12.40667,35.650664 0.26266,0.152 0.54933,0.224 0.832,0.224 0.576,0 1.136,-0.29866 1.44533,-0.83333 0.46,-0.79733 0.18667,-1.81733 -0.61067,-2.276"
       id="path185" />
  </g>
  <path
     d="m 262.37852,85.695431 c -9.02613,-1.50364 -17.14594,-3.08258 -18.04403,-3.50875 -2.25964,-1.07227 -4.29194,-4.3774 -4.29194,-6.97997 0,-2.70079 0.90953,-4.71082 2.9372,-6.49114 2.40888,-2.11502 4.13449,-2.28079 11.65701,-1.11983 3.58571,0.5534 6.69364,3.00212 6.9065,2.99718 1.44649,-0.0336 -12.87329,-14.82225 -19.64456,-20.28776 -18.50815,-14.939086 -41.14147,-22.936543 -63.8051,-28.044541 -9.98008,-2.249342 -20.50889,-2.014261 -30.67816,-0.897321 -16.79481,1.844654 -33.48292,6.08427 -49.136228,12.443675 -3.38702,1.376031 -6.03653,6.663512 -9.49735,5.485323 -5.40529,-1.84016 -9.09151,-10.807418 -6.52488,-15.838446 1.2241,-2.399424 2.1053,-3.028318 9.70513,-6.926303 C 107.36719,8.6262172 122.9251,3.7731802 140.73861,1.3125182 c 7.32251,-1.01149197 27.11546,-1.14996297 34.33875,-0.240234 26.22733,3.303177 50.08986,12.5388758 70.65943,27.3478658 8.65869,6.233797 19.60574,18.370125 25.8067,25.895501 1.62946,1.97748 3.11067,1.59542 3.29157,1.59542 0.18091,0 0.78371,-0.73357 1.33956,-4.0746 1.1441,-6.876815 1.67967,-8.190888 4.08655,-10.026701 1.47828,-1.127543 2.12049,-1.30009 4.83884,-1.30009 2.4534,0 3.41898,0.210898 4.44448,0.970742 1.56656,1.160745 3.31158,3.626583 3.72108,5.258164 0.35455,1.412641 -4.79788,33.840635 -5.7741,36.340595 -1.14049,2.92061 -5.13274,5.61428 -8.00576,5.40165 -0.38283,-0.0284 -8.08107,-1.28176 -17.10719,-2.7854 z"
     id="path12968" />
  <path
     d="m 180.99176,316.94764 c -2.60164,-1.19449 -27.55772,-21.76677 -28.75484,-23.70375 -1.48477,-2.40242 -1.39544,-5.75957 0.2246,-8.44023 1.68588,-2.78961 21.13173,-26.34225 22.7126,-27.50931 0.76036,-0.56132 2.26477,-1.01144 3.80832,-1.13944 2.13869,-0.17736 2.88188,-0.018 4.59379,0.98529 2.3454,1.3745 3.27701,2.61438 4.01019,5.33719 0.84775,3.14832 0.0451,4.96238 -4.87532,11.01912 -2.42501,2.98502 -6.33728,5.49913 -6.24949,5.58691 0.0878,0.0878 3.83678,-0.13526 5.88666,-0.49567 25.35015,-4.45699 47.07458,-16.63086 65.82222,-34.80204 16.5401,-16.03151 28.10385,-34.92321 34.63231,-56.57879 3.17608,-10.53538 5.32686,-24.24335 5.36099,-34.16823 0.0177,-5.14416 0.78423,-7.31996 3.38262,-9.60138 3.91075,-3.43368 14.00288,-2.05708 16.34959,2.79057 1.13552,2.34567 3.25131,6.16946 2.46895,15.48623 -2.95215,35.15589 -17.83,67.16625 -42.88487,92.26864 -16.14026,16.17087 -35.06976,28.03383 -56.55399,35.44191 -5.8684,2.02351 -18.20379,4.71143 -23.63992,5.62789 -1.91415,0.3227 -3.65067,0.7358 -3.85894,0.918 -0.20826,0.18219 -0.20217,2.12138 2.45799,4.3093 5.17154,4.25347 6.36151,5.94883 6.36151,9.06326 0,3.5677 -1.59436,6.0388 -4.87239,7.55171 -2.31289,1.06747 -4.13971,1.08258 -6.38258,0.0528 z"
     id="path13007" />
  <path
     d="m 85.217292,277.36938 c -11.33948,-5.9441 -31.271,-19.16384 -41.71007,-31.29125 -29.93315,-34.7743 -41.9385998,-81.72698 -32.451,-126.91415 1.2188,-5.80484 7.86121,-15.06042 9.59855,-19.610059 0.76553,-2.00472 -2.72222,-3.75904 -2.86166,-3.89848 -0.13944,-0.13944 1.20441,0.70779 -1.90256,1.88272 -6.4260498,2.43009 -8.5828898,2.635149 -11.3331098,1.07747 -4.92741997,-2.7908 -5.69598,-9.40683 -1.5366,-13.22762 1.04561,-0.9605 28.9916198,-11.92619 33.4776898,-13.13626 3.64826,-0.98408 7.59282,0.83345 9.40209,4.33221 1.88827,3.65149 12.23938,32.090869 12.23938,33.627309 0,5.87902 -6.44035,9.85643 -11.82353,7.30195 -2.42664,-1.15152 -3.56836,-2.94816 -6.02818,-9.48613 -1.20029,-3.19025 -0.33568,-5.96146 -0.52309,-6.15824 -0.43209,-0.45368 -4.3094,11.33503 -5.83725,17.74776 -2.59433,10.88899 -3.23686,16.90465 -3.22286,30.17382 0.0146,13.85851 0.69782,19.80716 3.66031,31.87047 5.3082,21.61504 16.93401,42.73094 32.47883,58.9911 7.05336,7.37795 16.85577,15.29862 25.65844,20.73288 4.8202,2.9757 6.36788,4.55265 7.08617,7.22015 1.320618,4.90442 -9.03929,10.17379 -14.42724,10.18513 -0.67594,10e-4 1.54912,-0.63792 0.0557,-1.42078 z"
     id="path13046" />
</svg>
